<svg xmlns="http://www.w3.org/2000/svg" width="85" height="58" viewBox="0 0 85 58"><text transform="translate(64 10)"
        fill="#292929" font-size="9" font-family="SegoeUI-Semibold, Segoe UI" font-weight="600">
    </text>
    <g transform="translate(0 2)">
        <path
            d="M19.356 28.183c-.306-.553-.648-.748-1.018-.672a4.966 4.966 0 0 1-1.03.068h-.119c-.93.314-1.809.648-2.612 1.01s-1.543.7-2.25 1.046-1.455.7-2.147 1.054c-.4.2-.835.4-1.276.588a68.993 68.993 0 0 0 1.861-3.976c.708-1.67 1.4-3.412 2.056-5.169a2.314 2.314 0 0 0 .228-1.732 1.018 1.018 0 0 0-1.121-.577 7.861 7.861 0 0 0-2.839.68 31.161 31.161 0 0 0-3.268 1.563c-1.078.6-2.087 1.165-2.986 1.706s-1.527.946-1.988 1.193a3.316 3.316 0 0 0-.732.748.553.553 0 0 0 .068.748.728.728 0 0 0 .557.127h.33a19.535 19.535 0 0 0 3.529-1.228c1.07-.489 2.032-.962 2.859-1.4s1.5-.8 2.072-1.1a4.373 4.373 0 0 1 .41-.2 15.181 15.181 0 0 1-.8 2.453c-.425 1.05-.918 2.115-1.443 3.161s-1.089 2.107-1.694 3.133S4.847 33.4 4.33 34.318a.608.608 0 0 0 0 .748 2.362 2.362 0 0 0 .441.5 2.481 2.481 0 0 0 .62.4 1.658 1.658 0 0 0 .7.175h.087l.083-.048a31.543 31.543 0 0 0 3.258-1.934c1.03-.68 2.048-1.352 3.078-2.012s2.048-1.276 3.125-1.877a24.835 24.835 0 0 1 3.477-1.53l.4-.151z"
            fill="#00b55b"></path>
        <path
            d="M36.64 14.315c.107-.445.231-.982.4-1.59s.31-1.316.453-2.024.258-1.376.366-2.012V5.77a4.489 4.489 0 0 0-3.108-4.255 3.431 3.431 0 0 0-2.233.23 5.169 5.169 0 0 0-1.865 1.5 13 13 0 0 0-1.415 2.243 15.964 15.964 0 0 0-1.034 2.533 12.048 12.048 0 0 0-.521 2.517 18.127 18.127 0 0 0-.248 2.307c-.052.982-.08 2.064-.1 3.181s0 2.243 0 3.392a18.632 18.632 0 0 0 .076 2.107l-.4.052a4.119 4.119 0 0 0-.982.322 10.326 10.326 0 0 0-.942.5c-.338.195-.748.445-1.252.748l-.083.06c-.25.211-.64.569-1.169 1.062s-1.109 1.113-1.71 1.793-1.193 1.4-1.789 2.2a14.091 14.091 0 0 0-1.491 2.461 7.189 7.189 0 0 0-.688 2.561 3.515 3.515 0 0 0 .688 2.457l.1.111a3.046 3.046 0 0 0 3.217.588 10.151 10.151 0 0 0 3.149-1.845 25.388 25.388 0 0 0 2.986-2.915l1.4-1.646c.087.489.163.954.223 1.38.119.875.239 1.7.342 2.481s.219 1.59.338 2.346.294 1.646.5 2.565l.052.147c.294.62.5 1.046.656 1.308a1.058 1.058 0 0 0 .744.584h.119a1.034 1.034 0 0 0 .744-.33l.239-.231v-.326c0-.751-.135-1.885-.294-3.268s-.326-2.783-.5-4.223-.322-2.751-.437-3.976q-.159-1.515-.179-2.3a18.207 18.207 0 0 0 1.718-2.489c.6-1.038 1.149-2.1 1.626-3.141s.891-2.056 1.241-2.99.632-1.71.851-2.322c.029-.139.1-.426.212-.934zm-14.895 18.43a3.758 3.758 0 0 1-.541.4 4.166 4.166 0 0 1-.68.338h-.068a.354.354 0 0 1-.072-.151 1.718 1.718 0 0 1-.052-.469v-.354a22.129 22.129 0 0 1 .942-2.076 11.841 11.841 0 0 1 1.936-2.525c.748-.748 1.388-1.4 1.909-1.869a13.746 13.746 0 0 1 1.308-1.038 2.783 2.783 0 0 1 .748-.4 1.379 1.379 0 0 1 .223-.044 1.634 1.634 0 0 1 .295 1.288 5.284 5.284 0 0 1-.938 1.988 13.917 13.917 0 0 1-1.789 1.988c-.7.656-1.3 1.256-1.793 1.777l-.8.636-.656.521zm10.791-15.56c-.513 1.066-.982 2.032-1.4 2.783a8.508 8.508 0 0 1-.648 1.062c-.044-.254-.08-.545-.111-.859-.052-.493-.072-1-.08-1.419.1-1.05.179-1.952.215-2.684s.06-1.392.076-1.988.052-1.157.1-1.7a16.43 16.43 0 0 1 .278-1.817 13.225 13.225 0 0 1 .5-1.829 11.9 11.9 0 0 1 .831-1.972 6.513 6.513 0 0 1 1.038-1.463.863.863 0 0 1 .616-.338h.127c.1 0 .294.3.4 1.034a15.778 15.778 0 0 1 0 3.519 28.4 28.4 0 0 1-.744 4.2 19.085 19.085 0 0 1-1.193 3.475z"
            fill="#2b2b2b"></path>
        <path
            d="M57.654 22.781a6.815 6.815 0 0 0-1.765-1.252 15.849 15.849 0 0 0-2.235-.926 17.857 17.857 0 0 0-2.437-.636 16.342 16.342 0 0 0-2.286-.294h-.5l-.219.441a1.169 1.169 0 0 1-.247.278h-.195a13.686 13.686 0 0 0-3.776.249 8.139 8.139 0 0 0-2.807 1.193 7.157 7.157 0 0 0-1.9 1.881 2.959 2.959 0 0 0-.06-.7 9.636 9.636 0 0 0-.167-1.392 83.722 83.722 0 0 0-.31-1.92l-.068-.4-.358-.159-1.13-.507a1.125 1.125 0 0 0-1.165.044 1 1 0 0 0-.37.958c.207 2.056.445 4.374.744 6.974a80.07 80.07 0 0 1 .282 9.213 1.117 1.117 0 0 0 .819 1.07 2.195 2.195 0 0 0 .68.111 2.342 2.342 0 0 0 .334 0 2.93 2.93 0 0 0 .863-.239 1.082 1.082 0 0 0 .656-1.221 6.143 6.143 0 0 1-.068-1.268l.056-1.885c0-.632.052-1.233.1-1.785s.08-.934.119-1.241c.195-.581.453-1.233.744-1.924a8.645 8.645 0 0 1 1.193-1.944 8.187 8.187 0 0 1 1.769-1.59 5.925 5.925 0 0 1 2.326-.9 3.431 3.431 0 0 0 1.642-.577l.1.127c.044.052.083.115.127.175a29.821 29.821 0 0 0-.33 3.368 49.83 49.83 0 0 0 .06 5.01 8.982 8.982 0 0 0 .306 1.622 7.463 7.463 0 0 0 .748 1.837 5.082 5.082 0 0 0 1.491 1.563 3.976 3.976 0 0 0 2.358.688 2.887 2.887 0 0 0 1.988-1.01 9.813 9.813 0 0 0 1.59-2.143 19.085 19.085 0 0 0 1.276-2.783 18.155 18.155 0 0 0 .843-2.99 10.461 10.461 0 0 0 .171-2.783 3.332 3.332 0 0 0-.992-2.333zm-4.652 9.789a1.384 1.384 0 0 1-.533.4.736.736 0 0 1-.4 0 1.074 1.074 0 0 1-.4-.211 3.47 3.47 0 0 1-.3-.294 5.1 5.1 0 0 1-.282-1.109 14.748 14.748 0 0 1-.195-2.286 19.785 19.785 0 0 1 .171-2.95 18.656 18.656 0 0 1 .5-2.517l1.07.294c.425.111.748.223 1.066.322a3.443 3.443 0 0 1 .581.258l.664.425a1.833 1.833 0 0 1 .477.934 5.133 5.133 0 0 1 0 1.877 9.082 9.082 0 0 1-2.445 4.879zM74.949 23.034a3.539 3.539 0 0 0-.573-1.03 2.684 2.684 0 0 0-.744-.644l-.545-.286a3.821 3.821 0 0 0-2.612-.219 7.455 7.455 0 0 0-2.347 1.131 12.171 12.171 0 0 0-2.1 1.869 20.556 20.556 0 0 0-1.734 2.2c-.239.346-.453.688-.648 1.014a155.42 155.42 0 0 0-.362-3.181 21 21 0 0 0-.636-3.32l-.052-.179-.127-.127a7.487 7.487 0 0 0-.708-.616 2.469 2.469 0 0 0-1.69-.33l-.883.052.195.859c.1.441.2.9.278 1.376s.155.922.195 1.324l.135 1.046a4 4 0 0 0 .044.433v.111c.135.851.247 2.076.338 3.634s.163 3.344.227 5.233.135 3.809.187 5.8.083 3.8.1 5.455.04 3.03.052 4.131 0 1.686 0 1.793v2.994a13.239 13.239 0 0 0 .083 1.376.966.966 0 0 0 .66.942l.569.076c.163 0 .31.044.445.052h.1a1.193 1.193 0 0 0 1.145-.922 6.473 6.473 0 0 0 .187-1.726V50.1c0-1.439-.052-3.308-.1-5.567-.044-2.072-.068-4.64-.076-7.666a8.107 8.107 0 0 0 2.7-.612 13.455 13.455 0 0 0 3.845-2.386 15.062 15.062 0 0 0 3.157-3.909 11.435 11.435 0 0 0 1.455-5.308 4.374 4.374 0 0 0-.159-1.618zm-6.163 2.243a12.008 12.008 0 0 1 1.714-1.193 1.054 1.054 0 0 1 1.193.119s.151.171.151.9a6.712 6.712 0 0 1-.577 2.457 10.171 10.171 0 0 1-1.877 2.9 9.316 9.316 0 0 1-3.515 2.386 4.314 4.314 0 0 1-1.153.358 1.761 1.761 0 0 1-.612 0h-.04a5.861 5.861 0 0 1 .517-1.65 19.948 19.948 0 0 1 1.416-2.624 31.035 31.035 0 0 1 1.63-2.314 11.655 11.655 0 0 1 1.193-1.36z"
            fill="#2b2b2b"></path>
        <path
            d="M43.062 8.915l5.964 6.68a1.165 1.165 0 0 0 1.157.358l7.348-1.793V5.014L43.325 8.127a.481.481 0 0 0-.358.577.449.449 0 0 0 .095.211z"
            fill="#00b55b"></path>
        <path d="M57.53 5.022v9.145l6.883-1.678a.35.35 0 0 0 .262-.421.314.314 0 0 0-.1-.175z" fill="#00d269"></path>
        <ellipse cx="1.757" cy="1.765" rx="1.757" ry="1.765" transform="translate(57.168)" fill="#00b55b"></ellipse>
    </g>
</svg>